<?xml version="1.0" standalone="no"?>

<!DOCTYPE svg PUBLIC "-//W3C//DTD SVG 20010904//EN"

 "http://www.w3.org/TR/2001/REC-SVG-20010904/DTD/svg10.dtd">

<svg version="1.0" xmlns="http://www.w3.org/2000/svg"

 width="1024.000000pt" height="1024.000000pt" viewBox="0 0 1024.000000 1024.000000"

 preserveAspectRatio="xMidYMid meet">

<path fill="#000000" stroke="none" d="
M483 894

C372 894 280 893 279 893

C277 892 270 891 263 890

C173 879 111 820 100 736

C99 730 98 718 97 708

C96 690 96 681 101 572

C102 547 104 512 105 493

C105 474 107 446 108 432

C108 417 109 395 110 383

C115 287 119 260 138 224

C146 208 153 198 167 184

C184 167 198 157 219 148

C248 135 276 129 318 127

C343 126 661 126 697 127

C745 129 772 134 803 148

L814 153

L814 152

L814 152

L815 153

C815 153 820 156 825 159

C868 186 896 227 905 281

C909 307 914 366 918 445

C919 457 920 479 921 494

C921 508 922 525 923 532

C923 538 923 547 924 552

C931 689 931 717 922 751

C917 772 912 786 901 803

C883 834 859 856 826 871

C793 887 759 893 703 894

C693 894 685 894 685 894

C685 894 594 894 483 894

Z

M549 755

C597 750 645 735 683 711

C711 693 740 665 759 637

C770 621 779 599 780 586

C782 560 763 540 738 542

C728 543 722 545 717 550

C711 555 709 559 704 571

C696 594 687 609 672 623

C650 645 623 661 589 672

C561 681 537 685 510 685

C472 685 432 675 396 656

C378 647 365 638 352 625

C336 609 326 594 318 572

C313 557 308 550 297 545

C292 543 290 543 281 543

C271 543 270 543 265 545

C249 553 240 569 243 586

C249 623 289 674 336 705

C357 718 382 730 410 739

C440 749 466 754 500 756

C508 757 536 756 549 755

Z

M380 480

C389 478 396 474 403 467

C413 458 417 447 421 428

C423 415 423 375 421 360

C416 332 407 316 390 308

C381 303 375 302 363 302

C337 302 319 314 311 339

C307 350 306 365 306 391

C306 423 308 439 315 454

C326 477 352 487 380 480

Z

M675 480

C695 476 709 459 713 437

C716 426 717 396 716 381

C715 347 709 330 697 318

C688 308 678 304 664 302

C641 300 624 307 613 322

C601 338 597 358 597 394

C597 428 601 447 613 462

C626 479 651 486 675 480

Z

"/>

<path fill="#ffffff" stroke="none" d="
"/>

</svg>

